<svg width="32" height="32" viewBox="0 0 32 32" fill="none" xmlns="http://www.w3.org/2000/svg">
<path d="M10.17 16.548C10.4127 16.548 10.604 16.632 10.744 16.8C10.884 16.968 10.954 17.2013 10.954 17.5C10.954 17.5747 10.9493 17.654 10.94 17.738C10.9307 17.8127 10.9167 17.878 10.898 17.934C10.702 17.8873 10.4873 17.8593 10.254 17.85C10.198 18.2607 10.0487 18.6947 9.806 19.152C9.56333 19.6 9.26933 20.0247 8.924 20.426C8.57867 20.818 8.20067 21.1633 7.79 21.462C7.37933 21.7607 6.97333 21.9613 6.572 22.064C5.32133 22.036 4.40667 21.7093 3.828 21.084C3.25867 20.468 2.974 19.502 2.974 18.186C2.974 17.2247 3.15133 16.296 3.506 15.4C3.86067 14.4947 4.332 13.692 4.92 12.992C5.508 12.292 6.18 11.732 6.936 11.312C7.70133 10.8827 8.49467 10.668 9.316 10.668C9.96 10.668 10.4593 10.8033 10.814 11.074C11.178 11.3447 11.36 11.7273 11.36 12.222C11.36 12.5487 11.2807 12.852 11.122 13.132C10.9727 13.412 10.7207 13.7153 10.366 14.042C10.1513 13.9767 9.96467 13.8647 9.806 13.706C9.64733 13.538 9.54933 13.3467 9.512 13.132C9.82933 12.8987 10.0533 12.684 10.184 12.488C10.3147 12.292 10.38 12.0587 10.38 11.788C10.38 11.3587 10.1233 11.144 9.61 11.144C9.19 11.144 8.73733 11.3027 8.252 11.62C7.776 11.928 7.29533 12.376 6.81 12.964C6.11933 13.7947 5.61533 14.6533 5.298 15.54C4.98067 16.4173 4.822 17.4067 4.822 18.508C4.822 18.9187 4.864 19.292 4.948 19.628C5.032 19.964 5.144 20.258 5.284 20.51C5.424 20.762 5.58733 20.9627 5.774 21.112C5.97 21.2613 6.18 21.3453 6.404 21.364C6.70267 21.2987 7.00133 21.1493 7.3 20.916C7.59867 20.6733 7.86933 20.3933 8.112 20.076C8.364 19.7493 8.574 19.404 8.742 19.04C8.91933 18.6667 9.02667 18.312 9.064 17.976C8.80267 18.032 8.55067 18.088 8.308 18.144C8.07467 18.1907 7.85067 18.214 7.636 18.214C7.356 18.214 7.10867 18.144 6.894 18.004C6.68867 17.864 6.54867 17.6727 6.474 17.43C6.642 17.3367 6.88467 17.2387 7.202 17.136C7.52867 17.0333 7.874 16.94 8.238 16.856C8.602 16.7627 8.95667 16.688 9.302 16.632C9.65667 16.576 9.946 16.548 10.17 16.548ZM11.4775 20.062C11.4775 19.978 11.4821 19.8753 11.4915 19.754C11.5101 19.6233 11.5381 19.4553 11.5755 19.25C11.6128 19.0353 11.6595 18.7787 11.7155 18.48C11.7808 18.1813 11.8601 17.822 11.9535 17.402C11.9721 17.3087 12.0141 17.1593 12.0795 16.954C12.1448 16.7487 12.2288 16.534 12.3315 16.31C12.4435 16.0767 12.5741 15.8527 12.7235 15.638C12.8821 15.4233 13.0688 15.2647 13.2835 15.162C13.4421 15.1993 13.6521 15.2973 13.9135 15.456C14.1748 15.6053 14.3988 15.8153 14.5855 16.086C14.3708 16.3287 14.1888 16.5713 14.0395 16.814C13.8995 17.0567 13.7688 17.3087 13.6475 17.57C13.5355 17.8313 13.4281 18.102 13.3255 18.382C13.2321 18.662 13.1248 18.956 13.0035 19.264C12.9008 19.5253 12.8075 19.796 12.7235 20.076C12.6395 20.3467 12.5928 20.5847 12.5835 20.79C12.5835 20.958 12.5788 21.0747 12.5695 21.14C12.5695 21.2147 12.5461 21.252 12.4995 21.252C12.4621 21.252 12.3875 21.2287 12.2755 21.182C12.1635 21.1353 12.0468 21.0653 11.9255 20.972C11.8135 20.8693 11.7108 20.7433 11.6175 20.594C11.5241 20.4447 11.4775 20.2673 11.4775 20.062ZM14.1515 13.986C14.1515 13.93 14.1655 13.846 14.1935 13.734C14.1468 13.6873 14.1048 13.6173 14.0675 13.524C14.0395 13.4307 14.0255 13.3467 14.0255 13.272C14.0255 13.188 14.0348 13.076 14.0535 12.936C14.0815 12.7867 14.1141 12.628 14.1515 12.46C14.1888 12.292 14.2355 12.1193 14.2915 11.942C14.3475 11.7553 14.4035 11.5873 14.4595 11.438C14.5715 11.438 14.7068 11.4707 14.8655 11.536C15.0335 11.592 15.2015 11.6713 15.3695 11.774C15.5375 11.8673 15.6915 11.9747 15.8315 12.096C15.9715 12.208 16.0788 12.3153 16.1535 12.418C16.0508 12.5207 15.9155 12.6653 15.7475 12.852C15.5795 13.0293 15.4161 13.2207 15.2575 13.426C15.0988 13.622 14.9541 13.8087 14.8235 13.986C14.6928 14.1633 14.6088 14.2893 14.5715 14.364C14.4595 14.3453 14.3615 14.2987 14.2775 14.224C14.1935 14.14 14.1515 14.0607 14.1515 13.986ZM16.4241 21.49C15.8921 21.434 15.4674 21.2007 15.1501 20.79C14.8327 20.3793 14.6741 19.8567 14.6741 19.222C14.6741 18.8487 14.7301 18.4613 14.8421 18.06C14.9541 17.6587 15.1127 17.2713 15.3181 16.898C15.5234 16.5153 15.7661 16.156 16.0461 15.82C16.3261 15.484 16.6294 15.1947 16.9561 14.952C17.4694 14.5693 17.9501 14.378 18.3981 14.378C18.6967 14.5367 18.9907 14.868 19.2801 15.372C19.3267 15.372 19.3687 15.372 19.4061 15.372C19.4434 15.3627 19.4854 15.358 19.5321 15.358C20.0267 15.358 20.2741 15.7967 20.2741 16.674C20.2741 17.262 20.1761 17.822 19.9801 18.354C19.7934 18.8767 19.5274 19.3527 19.1821 19.782C18.8461 20.2113 18.4401 20.5753 17.9641 20.874C17.4974 21.1633 16.9841 21.3687 16.4241 21.49ZM17.1381 17.08C16.9794 17.2947 16.8301 17.528 16.6901 17.78C16.5501 18.032 16.4287 18.2887 16.3261 18.55C16.2234 18.802 16.1441 19.0493 16.0881 19.292C16.0321 19.5253 16.0041 19.7353 16.0041 19.922C16.0041 20.146 16.0414 20.3607 16.1161 20.566C16.1907 20.7713 16.2747 20.888 16.3681 20.916C16.7881 20.8227 17.1707 20.65 17.5161 20.398C17.8707 20.1367 18.1741 19.8147 18.4261 19.432C18.6874 19.0493 18.8881 18.6153 19.0281 18.13C19.1774 17.6447 19.2521 17.1267 19.2521 16.576C19.2521 16.3333 19.2381 16.142 19.2101 16.002C19.1821 15.862 19.1354 15.7407 19.0701 15.638C18.6594 15.7593 18.2907 15.9553 17.9641 16.226C17.6467 16.4967 17.3714 16.7813 17.1381 17.08ZM24.5574 21.896C24.3427 22.008 24.1141 22.064 23.8714 22.064C23.5727 22.0267 23.2834 21.952 23.0034 21.84C22.7327 21.728 22.5321 21.5927 22.4014 21.434C22.3267 20.9767 22.2661 20.5567 22.2194 20.174C22.1727 19.7913 22.1354 19.432 22.1074 19.096C22.0794 18.7507 22.0607 18.424 22.0514 18.116C22.0421 17.7987 22.0374 17.4813 22.0374 17.164C22.0374 16.744 22.0421 16.3007 22.0514 15.834C22.0607 15.3673 22.0701 14.8727 22.0794 14.35C22.0981 13.818 22.1121 13.2533 22.1214 12.656C22.1307 12.0493 22.1354 11.3913 22.1354 10.682C22.2567 10.682 22.4387 10.7193 22.6814 10.794C22.9241 10.8593 23.1621 10.9387 23.3954 11.032C23.6381 11.1253 23.8527 11.2233 24.0394 11.326C24.2261 11.4193 24.3287 11.4987 24.3474 11.564C24.2541 11.8253 24.1701 12.166 24.0954 12.586C24.0301 13.006 23.9741 13.4727 23.9274 13.986C23.8901 14.4993 23.8621 15.0407 23.8434 15.61C23.8247 16.1793 23.8154 16.744 23.8154 17.304C23.8154 17.724 23.8201 18.102 23.8294 18.438C23.8387 18.7647 23.8481 19.0633 23.8574 19.334C23.8761 19.5953 23.8994 19.8427 23.9274 20.076C23.9554 20.3 23.9881 20.524 24.0254 20.748C24.2867 19.9547 24.5714 19.1613 24.8794 18.368C25.1967 17.5747 25.5187 16.814 25.8454 16.086C26.1814 15.3487 26.5127 14.6627 26.8394 14.028C27.1661 13.3933 27.4741 12.8427 27.7634 12.376C28.0621 11.9 28.3281 11.5267 28.5614 11.256C28.7947 10.976 28.9861 10.8267 29.1354 10.808C29.2381 10.8267 29.3454 10.8687 29.4574 10.934C29.5787 10.99 29.6907 11.06 29.7934 11.144C29.8961 11.228 29.9894 11.3213 30.0734 11.424C30.1574 11.5267 30.2227 11.6293 30.2694 11.732C29.9241 11.8533 29.5507 12.138 29.1494 12.586C28.7574 13.034 28.3607 13.5753 27.9594 14.21C27.5581 14.8353 27.1661 15.5213 26.7834 16.268C26.4101 17.0053 26.0694 17.7287 25.7614 18.438C25.4627 19.1473 25.2061 19.81 24.9914 20.426C24.7767 21.042 24.6321 21.532 24.5574 21.896Z" fill="#499161"/>
</svg>
